<svg xmlns="http://www.w3.org/2000/svg" viewBox="0 0 24 24" width="24" height="24" fill="#000000"><path d="M12.32 3.3L13.01 3.34L13.09 3.35L13.78 3.45L13.85 3.47L14.53 3.63L14.6 3.65L15.26 3.87L15.33 3.9L15.97 4.17L16.04 4.2L16.65 4.54L16.71 4.57L17.3 4.96L17.36 5L17.9 5.43L17.96 5.48L18.47 5.96L18.52 6.02L18.98 6.54L19.03 6.59L19.44 7.15L19.49 7.22L19.85 7.81L19.89 7.87L20.2 8.5L20.23 8.57L20.49 9.21L20.52 9.28L20.72 9.95L20.73 10.02L20.88 10.7L20.89 10.78L20.97 11.47L20.98 11.55L21 12.24L21 12.32L20.96 13.01L20.95 13.09L20.85 13.78L20.84 13.85L20.68 14.53L20.66 14.6L20.44 15.26L20.41 15.33L20.14 15.97L20.11 16.04L19.78 16.66L19.74 16.72L19.36 17.3L19.32 17.37L18.89 17.91L18.84 17.97L18.36 18.48L18.31 18.53L17.79 19L17.73 19.05L17.18 19.46L17.11 19.51L16.52 19.88L16.46 19.91L15.84 20.23L15.77 20.26L15.12 20.52L15.05 20.55L14.39 20.75L14.32 20.77L13.64 20.92L13.56 20.93L12.87 21.01L12.79 21.02L12.1 21.04L12.02 21.04L11.33 21.01L11.25 21L10.56 20.91L10.49 20.89L9.81 20.74L9.74 20.72L9.07 20.5L9 20.48L8.66 20.33L5.37 21.41L5.35 21.42L5.15 21.48L5.11 21.49L4.92 21.54L4.86 21.55L4.69 21.58L4.62 21.59L4.47 21.6L4.38 21.61L4.24 21.61L4.13 21.6L4.01 21.58L3.87 21.55L3.76 21.52L3.61 21.46L3.52 21.41L3.37 21.31L3.29 21.25L3.15 21.11L3.09 21.03L2.99 20.86L2.95 20.77L2.9 20.62L2.87 20.51L2.85 20.37L2.84 20.25L2.83 20.15L2.84 20.01L2.84 19.92L2.87 19.76L2.88 19.69L2.91 19.52L2.93 19.47L2.98 19.29L2.99 19.24L3.06 19.04L3.07 19.02L4.15 16.05L4.01 15.76L3.98 15.69L3.73 15.04L3.7 14.97L3.51 14.3L3.49 14.23L3.36 13.55L3.35 13.47L3.27 12.78L3.27 12.7L3.25 12.01L3.25 11.93L3.3 11.24L3.31 11.16L3.41 10.47L3.43 10.4L3.59 9.72L3.61 9.65L3.84 8.99L3.87 8.92L4.14 8.28L4.18 8.22L4.51 7.61L4.55 7.54L4.94 6.96L4.98 6.9L5.42 6.36L5.47 6.3L5.95 5.8L6 5.74L6.53 5.28L6.58 5.24L7.14 4.82L7.21 4.78L7.8 4.42L7.87 4.38L8.49 4.07L8.56 4.04L9.21 3.79L9.28 3.76L9.95 3.57L10.02 3.55L10.7 3.41L10.78 3.4L11.47 3.32L11.55 3.31L12.24 3.3ZM8.4 11L8.26 11.01L8.07 11.06L7.89 11.14L7.73 11.26L7.59 11.41L7.49 11.58L7.43 11.77L7.4 11.97L7.41 12.17L7.47 12.36L7.56 12.54L7.68 12.7L7.84 12.83L8.01 12.92L8.2 12.98L8.4 13L8.41 13L8.55 12.99L8.74 12.94L8.93 12.86L9.09 12.74L9.22 12.59L9.32 12.42L9.38 12.23L9.41 12.03L9.4 11.83L9.34 11.64L9.25 11.46L9.13 11.3L8.98 11.18L8.8 11.08L8.61 11.02L8.41 11ZM12 11L11.86 11.01L11.67 11.06L11.49 11.14L11.33 11.26L11.19 11.41L11.09 11.58L11.03 11.77L11 11.97L11.01 12.17L11.07 12.36L11.16 12.54L11.28 12.7L11.44 12.83L11.61 12.92L11.8 12.98L12 13L12.01 13L12.15 12.99L12.34 12.94L12.53 12.86L12.69 12.74L12.82 12.59L12.92 12.42L12.98 12.23L13.01 12.03L13 11.83L12.94 11.64L12.85 11.46L12.73 11.3L12.58 11.18L12.4 11.08L12.21 11.02L12.01 11ZM15.6 11L15.46 11.01L15.27 11.06L15.09 11.14L14.93 11.26L14.79 11.41L14.69 11.58L14.63 11.77L14.6 11.97L14.61 12.17L14.67 12.36L14.76 12.54L14.88 12.7L15.04 12.83L15.21 12.92L15.4 12.98L15.6 13L15.61 13L15.75 12.99L15.94 12.94L16.13 12.86L16.29 12.74L16.42 12.59L16.52 12.42L16.58 12.23L16.61 12.03L16.6 11.83L16.54 11.64L16.45 11.46L16.33 11.3L16.18 11.18L16 11.08L15.81 11.02L15.61 11Z"/></svg>
