<svg xmlns="http://www.w3.org/2000/svg" viewBox="0 0 24 24" width="24" height="24" fill="#000000"><path d="M12.17 1.94L12.34 2L12.51 2.09L12.65 2.21L12.76 2.36L12.83 2.53L12.87 2.72L12.87 2.9L12.85 3.03L12.67 3.67L12.53 4.25L12.43 4.74L12.34 5.21L12.28 5.65L12.24 5.97L12.23 6.24L12.39 6.1L12.59 5.9L12.81 5.66L13.07 5.36L13.32 5.05L13.45 4.92L13.61 4.82L13.78 4.75L13.97 4.73L14.16 4.74L14.34 4.79L14.5 4.88L14.64 5L14.75 5.15L14.84 5.37L14.92 5.64L15.01 5.92L15.11 6.15L15.24 6.4L15.38 6.66L15.54 6.9L15.71 7.16L15.88 7.4L16.07 7.66L16.27 7.93L16.27 7.93L16.48 8.2L16.48 8.21L16.68 8.48L16.69 8.49L16.89 8.77L16.9 8.78L17.09 9.07L17.1 9.09L17.29 9.38L17.31 9.41L17.48 9.71L17.5 9.74L17.66 10.05L17.68 10.09L17.83 10.41L17.85 10.45L17.98 10.78L18 10.83L18.11 11.18L18.13 11.24L18.22 11.6L18.24 11.66L18.3 12.03L18.31 12.1L18.36 12.49L18.36 12.55L18.37 12.97L18.37 13.04L18.35 13.52L18.35 13.59L18.28 14.07L18.27 14.14L18.17 14.61L18.15 14.69L18 15.15L17.98 15.22L17.79 15.66L17.76 15.73L17.54 16.15L17.5 16.22L17.24 16.63L17.2 16.69L16.91 17.07L16.86 17.13L16.53 17.48L16.48 17.53L16.13 17.86L16.07 17.91L15.69 18.2L15.63 18.24L15.22 18.5L15.15 18.54L14.73 18.76L14.66 18.79L14.22 18.98L14.15 19L13.69 19.15L13.61 19.17L13.14 19.27L13.07 19.28L12.59 19.35L12.52 19.35L12.04 19.37L11.96 19.37L11.48 19.35L11.41 19.35L10.93 19.28L10.86 19.27L10.39 19.17L10.31 19.15L9.85 19L9.79 18.98L9.34 18.79L9.27 18.76L8.85 18.54L8.78 18.5L8.38 18.24L8.31 18.2L7.93 17.91L7.87 17.86L7.52 17.53L7.47 17.48L7.14 17.13L7.09 17.07L6.8 16.69L6.76 16.63L6.5 16.22L6.46 16.15L6.24 15.73L6.21 15.66L6.02 15.22L6 15.15L5.85 14.69L5.83 14.61L5.73 14.14L5.72 14.07L5.65 13.59L5.65 13.52L5.63 13.04L5.63 12.97L5.65 12.23L5.66 12.16L5.74 11.44L5.75 11.38L5.88 10.68L5.89 10.63L6.06 9.95L6.07 9.89L6.28 9.24L6.3 9.19L6.54 8.56L6.56 8.52L6.83 7.91L6.85 7.87L7.15 7.29L7.17 7.26L7.48 6.7L7.5 6.67L7.83 6.15L7.85 6.12L8.18 5.62L8.2 5.6L8.55 5.13L8.56 5.11L8.91 4.67L8.92 4.65L9.26 4.25L9.28 4.23L9.61 3.86L9.62 3.85L9.94 3.51L9.95 3.5L10.25 3.2L10.26 3.18L10.53 2.92L10.55 2.91L10.79 2.68L10.8 2.67L11.01 2.48L11.02 2.48L11.19 2.33L11.21 2.32L11.33 2.21L11.35 2.2L11.43 2.14L11.43 2.13L11.46 2.11L11.62 2.01L11.79 1.95L11.98 1.93ZM11.88 10.65L11.76 10.79L11.65 10.93L11.53 11.06L11.42 11.19L11.3 11.32L11.19 11.45L11.09 11.57L10.98 11.69L10.88 11.81L10.79 11.92L10.69 12.04L10.61 12.15L10.53 12.27L10.45 12.38L10.38 12.5L10.32 12.62L10.26 12.74L10.22 12.86L10.18 12.98L10.14 13.1L10.12 13.23L10.11 13.37L10.1 13.5L10.11 13.62L10.12 13.73L10.14 13.85L10.17 13.96L10.21 14.06L10.26 14.17L10.31 14.27L10.37 14.36L10.44 14.46L10.51 14.54L10.59 14.63L10.68 14.71L10.77 14.78L10.86 14.85L10.96 14.91L11.06 14.97L11.17 15.02L11.28 15.07L11.4 15.11L11.51 15.14L11.63 15.17L11.75 15.19L11.88 15.2L12 15.2L12.12 15.2L12.25 15.19L12.37 15.17L12.49 15.14L12.61 15.11L12.72 15.07L12.83 15.02L12.94 14.97L13.04 14.91L13.14 14.85L13.24 14.78L13.33 14.71L13.41 14.63L13.49 14.54L13.56 14.46L13.63 14.36L13.69 14.27L13.74 14.17L13.79 14.06L13.83 13.96L13.86 13.85L13.88 13.73L13.9 13.62L13.9 13.5L13.9 13.37L13.88 13.23L13.86 13.1L13.83 12.98L13.79 12.86L13.74 12.74L13.68 12.62L13.62 12.5L13.55 12.38L13.47 12.27L13.39 12.15L13.31 12.04L13.22 11.92L13.12 11.81L13.02 11.69L12.92 11.57L12.81 11.45L12.7 11.32L12.59 11.19L12.47 11.06L12.35 10.93L12.24 10.79L12.12 10.65L12 10.5Z"/></svg>
