<svg xmlns="http://www.w3.org/2000/svg" viewBox="0 0 24 24" width="24" height="24" fill="#000000"><path fill-rule="evenodd" d="M17.62 4.18L19.81 6.37A2.58 2.58 0 0 1 19.81 10.03L10.6 19.24A7.71 7.71 0 0 1 6.88 21.3L5.09 21.71A1.83 1.83 0 0 1 2.89 19.52L3.31 17.72A8.46 8.46 0 0 1 5.27 13.95L14.02 4.27A2.48 2.48 0 0 1 17.62 4.18Z M14.68 5.88L14.79 5.93L14.84 5.97L18.03 9.16L18.1 9.25L18.13 9.37L18.12 9.48L18.07 9.59L18.03 9.64L17.04 10.63L16.95 10.7L16.83 10.73L16.72 10.72L16.61 10.67L16.56 10.63L13.37 7.44L13.3 7.35L13.27 7.23L13.28 7.18L14.39 5.95L14.45 5.9L14.57 5.87Z"/></svg>
