<svg xmlns="http://www.w3.org/2000/svg" viewBox="0 0 24 24" width="24" height="24" fill="#000000"><path d="M13.64 2.61L13.8 2.63L13.88 2.64L13.98 2.67L14.06 2.69L14.19 2.73L14.27 2.76L14.39 2.81L14.46 2.85L14.54 2.9L14.62 2.95L14.7 3L14.78 3.06L14.85 3.11L14.93 3.17L14.99 3.23L15.07 3.3L20.7 8.93L20.77 9.01L20.83 9.07L20.9 9.15L20.94 9.22L21 9.3L21.06 9.38L21.1 9.46L21.15 9.54L21.19 9.61L21.24 9.73L21.27 9.81L21.31 9.94L21.34 10.02L21.36 10.12L21.37 10.2L21.39 10.36L21.39 10.44L21.39 10.56L21.39 10.64L21.37 10.8L21.36 10.88L21.34 10.98L21.31 11.06L21.27 11.19L21.24 11.27L21.19 11.39L21.15 11.46L21.1 11.54L21.06 11.62L21 11.7L20.94 11.78L20.9 11.85L20.83 11.93L20.77 11.99L20.7 12.07L18.57 14.2L18.49 14.27L18.43 14.33L18.35 14.4L18.28 14.44L18.2 14.5L18.12 14.56L18.04 14.6L17.96 14.65L17.89 14.69L17.77 14.74L17.69 14.77L17.56 14.81L17.48 14.84L17.38 14.86L17.3 14.87L17.14 14.89L17.06 14.89L16.94 14.89L16.86 14.89L16.7 14.87L16.62 14.86L16.52 14.84L16.44 14.81L16.31 14.77L16.23 14.74L16.11 14.69L16.04 14.65L15.96 14.6L15.88 14.56L15.8 14.5L15.72 14.44L15.65 14.4L15.58 14.33L15.51 14.27L15.43 14.2L15 13.77L8.88 19.88L8.85 19.92L8.71 20.05L8.63 20.12L8.48 20.23L8.39 20.29L8.23 20.39L8.14 20.44L7.98 20.53L7.87 20.58L7.7 20.65L7.6 20.69L7.43 20.74L7.32 20.77L7.14 20.81L7.03 20.83L6.85 20.85L6.74 20.86L6.55 20.87L6.45 20.87L6.26 20.86L6.15 20.85L5.97 20.83L5.86 20.81L5.68 20.77L5.57 20.74L5.4 20.69L5.3 20.65L5.13 20.58L5.02 20.53L4.86 20.44L4.77 20.39L4.61 20.29L4.52 20.23L4.37 20.12L4.29 20.05L4.15 19.92L4.08 19.85L3.96 19.71L3.88 19.63L3.77 19.48L3.71 19.39L3.61 19.23L3.56 19.14L3.47 18.98L3.42 18.87L3.35 18.7L3.32 18.6L3.26 18.43L3.23 18.32L3.19 18.14L3.17 18.03L3.15 17.85L3.14 17.74L3.13 17.55L3.13 17.45L3.14 17.26L3.15 17.15L3.17 16.97L3.19 16.86L3.23 16.68L3.26 16.57L3.32 16.4L3.35 16.3L3.42 16.13L3.47 16.02L3.56 15.86L3.61 15.77L3.71 15.61L3.77 15.52L3.88 15.37L3.96 15.29L4.08 15.15L4.12 15.12L10.23 9L9.8 8.57L9.73 8.49L9.67 8.43L9.61 8.35L9.56 8.28L9.5 8.2L9.45 8.12L9.4 8.04L9.35 7.96L9.31 7.89L9.26 7.77L9.23 7.69L9.19 7.56L9.16 7.48L9.14 7.38L9.13 7.3L9.11 7.14L9.11 7.06L9.11 6.94L9.11 6.86L9.13 6.7L9.14 6.62L9.16 6.52L9.19 6.44L9.23 6.31L9.26 6.23L9.31 6.11L9.35 6.04L9.4 5.96L9.45 5.88L9.5 5.8L9.56 5.72L9.61 5.65L9.67 5.58L9.73 5.51L9.8 5.43L11.93 3.3L12.01 3.23L12.08 3.17L12.15 3.11L12.22 3.06L12.3 3L12.38 2.95L12.46 2.9L12.54 2.85L12.61 2.81L12.73 2.76L12.81 2.73L12.94 2.69L13.02 2.67L13.12 2.64L13.2 2.63L13.36 2.61L13.44 2.61L13.56 2.61ZM5.9 16.87L5.83 16.94L5.79 17L5.75 17.06L5.71 17.13L5.68 17.2L5.66 17.27L5.64 17.36L5.63 17.42L5.63 17.5L5.63 17.58L5.64 17.64L5.66 17.73L5.68 17.8L5.71 17.87L5.75 17.94L5.79 18L5.83 18.06L5.89 18.11L5.94 18.17L6 18.22L6.06 18.25L6.13 18.29L6.2 18.32L6.27 18.34L6.36 18.36L6.42 18.37L6.5 18.37L6.58 18.37L6.64 18.36L6.73 18.34L6.8 18.32L6.87 18.29L6.94 18.25L7 18.22L7.06 18.17L7.13 18.1L13.23 12L12 10.77ZM11.77 7L17 12.23L18.73 10.5L13.5 5.27Z"/></svg>
