<svg xmlns="http://www.w3.org/2000/svg" viewBox="0 0 24 24" width="24" height="24" fill="#000000"><path d="M12.21 2.05L12.39 2.12L12.5 2.18L12.75 2.36L13.02 2.53L13.26 2.69L13.52 2.85L13.8 3L14.05 3.14L14.34 3.29L14.6 3.42L14.88 3.55L15.17 3.68L15.44 3.78L15.74 3.9L16.02 4L16.34 4.1L16.63 4.19L16.94 4.28L17.25 4.36L17.54 4.43L17.85 4.49L18.18 4.56L18.51 4.61L18.81 4.65L19.14 4.69L19.49 4.73L19.67 4.77L19.84 4.84L19.99 4.96L20.11 5.1L20.21 5.26L20.26 5.44L20.27 5.6L20.27 11.92L20.26 12.5L20.26 12.55L20.21 13.11L20.21 13.16L20.13 13.7L20.13 13.75L20.02 14.28L20.01 14.33L19.88 14.84L19.87 14.89L19.71 15.39L19.69 15.44L19.51 15.92L19.49 15.97L19.28 16.43L19.25 16.47L19.02 16.92L18.99 16.96L18.73 17.39L18.7 17.43L18.42 17.85L18.39 17.89L18.08 18.28L18.04 18.32L17.71 18.7L17.68 18.73L17.32 19.09L17.28 19.12L16.9 19.46L16.87 19.49L16.47 19.82L16.43 19.85L16.01 20.15L15.98 20.18L15.53 20.47L15.5 20.49L15.04 20.76L15 20.78L14.52 21.03L14.49 21.05L13.98 21.29L13.95 21.3L13.43 21.52L13.4 21.53L12.86 21.74L12.83 21.75L12.28 21.93L12.09 21.97L11.91 21.97L11.72 21.93L11.17 21.75L11.14 21.74L10.6 21.53L10.57 21.52L10.05 21.3L10.02 21.29L9.52 21.05L9.48 21.03L9 20.78L8.97 20.76L8.5 20.49L8.47 20.47L8.02 20.18L7.99 20.15L7.57 19.85L7.53 19.82L7.13 19.49L7.1 19.46L6.72 19.12L6.68 19.09L6.33 18.73L6.29 18.69L5.96 18.32L5.93 18.28L5.62 17.89L5.58 17.85L5.3 17.43L5.27 17.39L5.01 16.96L4.98 16.92L4.75 16.47L4.72 16.43L4.51 15.97L4.49 15.92L4.31 15.44L4.29 15.39L4.13 14.89L4.12 14.84L3.99 14.33L3.98 14.28L3.87 13.75L3.87 13.7L3.79 13.16L3.79 13.11L3.74 12.55L3.74 12.5L3.73 11.92L3.73 5.6L3.75 5.41L3.8 5.24L3.9 5.08L4.03 4.94L4.18 4.83L4.35 4.76L4.51 4.73L4.86 4.69L5.19 4.65L5.49 4.61L5.82 4.56L6.15 4.49L6.46 4.43L6.75 4.36L7.06 4.28L7.37 4.19L7.66 4.1L7.98 4L7.98 4L8.25 3.9L8.56 3.78L8.83 3.68L9.12 3.55L9.4 3.42L9.66 3.29L9.95 3.14L10.21 3L10.48 2.85L10.74 2.69L10.98 2.53L11.25 2.36L11.5 2.18L11.66 2.09L11.84 2.04L12.03 2.03ZM14.89 8.92L14.7 8.98L14.53 9.08L14.38 9.21L11.08 12.67L9.61 11.19L9.5 11.1L9.33 11L9.14 10.93L8.95 10.9L8.74 10.91L8.55 10.96L8.37 11.05L8.21 11.17L8.08 11.32L7.99 11.5L7.92 11.69L7.9 11.89L7.92 12.08L7.97 12.28L8.07 12.45L8.19 12.61L10.39 14.81L10.54 14.93L10.72 15.03L10.91 15.08L11.11 15.1L11.31 15.08L11.5 15.02L11.67 14.92L11.82 14.79L15.82 10.59L15.91 10.48L16.01 10.31L16.08 10.12L16.1 9.92L16.08 9.72L16.03 9.53L15.94 9.35L15.81 9.2L15.66 9.07L15.48 8.98L15.29 8.92L15.09 8.9Z"/></svg>
