<svg xmlns="http://www.w3.org/2000/svg" viewBox="0 0 24 24" width="24" height="24" fill="#000000"><path d="M12.16 10.39L12.31 10.41L12.38 10.42L12.52 10.46L12.59 10.48L12.74 10.54L12.81 10.57L12.92 10.63L12.99 10.67L13.09 10.73L13.17 10.79L13.24 10.84L13.31 10.9L13.38 10.96L13.45 11.03L13.51 11.09L13.58 11.17L13.6 11.2L18.95 17.44L19.08 17.62L19.17 17.82L19.23 18.04L19.25 18.26L19.23 18.48L19.17 18.7L19.07 18.9L18.94 19.08L18.77 19.23L18.59 19.35L18.38 19.44L18.17 19.49L17.94 19.5L17.72 19.47L17.51 19.4L17.31 19.29L17.14 19.15L17.05 19.06L12 13.17L6.95 19.06L6.79 19.22L6.6 19.34L6.4 19.43L6.18 19.49L5.96 19.5L5.74 19.47L5.52 19.41L5.33 19.3L5.15 19.17L5 19L4.88 18.81L4.8 18.6L4.76 18.38L4.75 18.16L4.79 17.94L4.86 17.73L4.97 17.54L5.05 17.44L10.4 11.2L10.42 11.17L10.49 11.09L10.55 11.03L10.62 10.96L10.69 10.9L10.77 10.84L10.84 10.79L10.91 10.73L11.01 10.67L11.08 10.63L11.19 10.57L11.26 10.54L11.41 10.48L11.48 10.46L11.62 10.42L11.69 10.41L11.84 10.39L11.91 10.38L12.09 10.38ZM12.16 4.89L12.31 4.91L12.38 4.92L12.52 4.96L12.59 4.98L12.74 5.04L12.81 5.07L12.92 5.13L12.99 5.17L13.09 5.23L13.17 5.29L13.24 5.34L13.31 5.4L13.38 5.46L13.45 5.53L13.51 5.59L13.58 5.67L13.6 5.7L18.95 11.94L19.08 12.12L19.17 12.32L19.23 12.54L19.25 12.76L19.23 12.98L19.17 13.2L19.07 13.4L18.94 13.58L18.77 13.73L18.59 13.85L18.38 13.94L18.17 13.99L17.94 14L17.72 13.97L17.51 13.9L17.31 13.79L17.14 13.65L17.05 13.56L12 7.67L6.95 13.56L6.79 13.72L6.6 13.84L6.4 13.93L6.18 13.99L5.96 14L5.74 13.97L5.52 13.91L5.33 13.8L5.15 13.67L5 13.5L4.88 13.31L4.8 13.1L4.76 12.88L4.75 12.66L4.79 12.44L4.86 12.23L4.97 12.04L5.05 11.94L10.4 5.7L10.42 5.67L10.49 5.59L10.55 5.53L10.62 5.46L10.69 5.4L10.77 5.34L10.84 5.29L10.91 5.23L11.01 5.17L11.08 5.13L11.19 5.07L11.26 5.04L11.41 4.98L11.48 4.96L11.62 4.92L11.69 4.91L11.84 4.89L11.91 4.88L12.09 4.88Z"/></svg>
